<mxfile host="app.diagrams.net" modified="2024-03-28T05:58:12.826Z" agent="Mozilla/5.0 (Windows NT 10.0; Win64; x64) AppleWebKit/537.36 (KHTML, like Gecko) Chrome/122.0.0.0 Safari/537.36 Edg/122.0.0.0" etag="i4QWrK_Wej-3FtbsKSiS" version="24.0.7" type="github">
  <diagram name="第 1 页" id="YpbiSjG1CCVhTUE82v4j">
    <mxGraphModel dx="1026" dy="467" grid="1" gridSize="10" guides="1" tooltips="1" connect="1" arrows="1" fold="1" page="1" pageScale="1" pageWidth="1169" pageHeight="827" math="0" shadow="0">
      <root>
        <mxCell id="0" />
        <mxCell id="1" parent="0" />
      </root>
    </mxGraphModel>
  </diagram>
</mxfile>
